<svg id="Blake_Lyons_Logo_on_Black" data-name="Blake Lyons Logo on Black" xmlns="http://www.w3.org/2000/svg" viewBox="0 0 728.72 109.48"><g><g><path d="M205.59,83.29l-7.25,19.01h-3.37l-5.6-14.42-5.67,14.42h-3.37l-7.21-19.01h3.33l5.64,15.14,5.86-15.14h2.96l5.75,15.21,5.78-15.21h3.15Z" style="fill: rgb(255, 255, 255); stroke-width: 0px;"></path><path d="M226.05,93.94h-15.74c.22,1.67.97,3.02,2.25,4.04s2.87,1.52,4.78,1.52c2.32,0,4.18-.77,5.6-2.3l1.94,2.22c-.88,1-1.97,1.77-3.28,2.3-1.31.53-2.76.79-4.37.79-2.05,0-3.87-.41-5.45-1.24-1.59-.83-2.81-1.98-3.68-3.46-.87-1.48-1.3-3.16-1.3-5.02s.42-3.5,1.26-4.99c.84-1.48,2-2.64,3.48-3.46,1.48-.83,3.14-1.24,5-1.24s3.51.41,4.96,1.24c1.45.82,2.59,1.98,3.4,3.46.82,1.48,1.23,3.18,1.23,5.09,0,.26-.02.61-.07,1.04ZM212.31,87.52c-1.13,1-1.8,2.32-1.99,3.95h12.44c-.2-1.6-.86-2.91-1.99-3.93-1.13-1.02-2.54-1.52-4.23-1.52s-3.09.5-4.23,1.51Z" style="fill: rgb(255, 255, 255); stroke-width: 0px;"></path><path d="M246.32,84.33c1.49.81,2.65,1.95,3.5,3.41s1.26,3.14,1.26,5.06-.42,3.61-1.26,5.08-2.01,2.61-3.5,3.43c-1.49.81-3.17,1.22-5.05,1.22-1.44,0-2.76-.27-3.95-.82-1.2-.55-2.18-1.35-2.96-2.4v3.01h-3.37v-26.62h3.51v10.47c.78-1,1.76-1.76,2.93-2.28,1.17-.51,2.45-.77,3.84-.77,1.88,0,3.56.41,5.05,1.22ZM244.33,98.66c.99-.56,1.77-1.35,2.34-2.37.57-1.02.86-2.18.86-3.5s-.29-2.48-.86-3.5c-.57-1.02-1.35-1.8-2.34-2.35-.99-.55-2.1-.83-3.35-.83s-2.33.28-3.33.83c-1,.55-1.78,1.33-2.34,2.35-.56,1.02-.84,2.18-.84,3.5s.28,2.48.84,3.5c.56,1.02,1.34,1.81,2.34,2.37,1,.56,2.11.84,3.33.84s2.36-.28,3.35-.84Z" style="fill: rgb(255, 255, 255); stroke-width: 0px;"></path><path d="M284.09,75.69v26.62h-3.37v-3.01c-.78,1.05-1.77,1.85-2.96,2.4-1.2.55-2.51.82-3.95.82-1.88,0-3.56-.41-5.05-1.22-1.49-.81-2.65-1.96-3.49-3.43-.84-1.47-1.26-3.16-1.26-5.08s.42-3.6,1.26-5.06c.84-1.46,2.01-2.59,3.49-3.41,1.49-.81,3.17-1.22,5.05-1.22,1.39,0,2.67.26,3.84.77,1.17.51,2.15,1.27,2.93,2.28v-10.47h3.51ZM277.43,98.66c1-.56,1.78-1.35,2.34-2.37.56-1.02.84-2.18.84-3.5s-.28-2.48-.84-3.5c-.56-1.02-1.34-1.8-2.34-2.35-1-.55-2.11-.83-3.33-.83s-2.36.28-3.35.83-1.77,1.33-2.34,2.35c-.57,1.02-.86,2.18-.86,3.5s.29,2.48.86,3.5c.57,1.02,1.35,1.81,2.34,2.37s2.1.84,3.35.84,2.33-.28,3.33-.84Z" style="fill: rgb(0, 143, 237); stroke-width: 0px;"></path><path d="M308.21,93.94h-15.74c.22,1.67.97,3.02,2.25,4.04s2.87,1.52,4.78,1.52c2.32,0,4.18-.77,5.6-2.3l1.94,2.22c-.88,1-1.97,1.77-3.28,2.3-1.31.53-2.76.79-4.37.79-2.05,0-3.87-.41-5.45-1.24-1.59-.83-2.81-1.98-3.68-3.46-.87-1.48-1.3-3.16-1.3-5.02s.42-3.5,1.26-4.99c.84-1.48,2-2.64,3.48-3.46,1.48-.83,3.14-1.24,5-1.24s3.51.41,4.96,1.24c1.45.82,2.59,1.98,3.4,3.46.82,1.48,1.23,3.18,1.23,5.09,0,.26-.02.61-.07,1.04ZM294.47,87.52c-1.13,1-1.8,2.32-1.99,3.95h12.44c-.2-1.6-.86-2.91-1.99-3.93-1.13-1.02-2.54-1.52-4.23-1.52s-3.09.5-4.23,1.51Z" style="fill: rgb(0, 143, 237); stroke-width: 0px;"></path><path d="M314.14,101.89c-1.46-.42-2.61-.95-3.44-1.6l1.46-2.73c.85.6,1.89,1.08,3.11,1.44,1.22.36,2.45.54,3.7.54,3.07,0,4.61-.86,4.61-2.58,0-.57-.21-1.03-.62-1.36s-.93-.58-1.56-.74c-.62-.16-1.51-.33-2.65-.52-1.56-.24-2.84-.51-3.82-.83-.99-.31-1.84-.84-2.54-1.58-.71-.74-1.06-1.78-1.06-3.12,0-1.72.73-3.1,2.2-4.14s3.43-1.56,5.89-1.56c1.29,0,2.59.16,3.88.47,1.29.31,2.35.73,3.18,1.26l-1.5,2.73c-1.59-1-3.45-1.51-5.6-1.51-1.49,0-2.62.24-3.4.72-.78.48-1.17,1.11-1.17,1.9,0,.62.22,1.11.66,1.47s.98.62,1.63.79c.65.17,1.56.36,2.73.57,1.56.26,2.82.54,3.79.84.96.3,1.79.81,2.47,1.52.68.72,1.02,1.72,1.02,3.01,0,1.72-.75,3.09-2.25,4.11-1.5,1.02-3.54,1.52-6.13,1.52-1.59,0-3.11-.21-4.57-.63Z" style="fill: rgb(0, 143, 237); stroke-width: 0px;"></path><path d="M331.54,78.99c-.45-.43-.68-.96-.68-1.58s.23-1.15.68-1.6c.45-.44,1.02-.66,1.7-.66s1.25.21,1.7.63c.45.42.68.94.68,1.56s-.23,1.19-.68,1.63c-.45.44-1.02.66-1.7.66s-1.25-.21-1.7-.65ZM331.49,83.29h3.51v19.01h-3.51v-19.01Z" style="fill: rgb(0, 143, 237); stroke-width: 0px;"></path><path d="M360.25,83.29v16.43c0,3.32-.84,5.78-2.53,7.37-1.68,1.59-4.2,2.38-7.54,2.38-1.83,0-3.57-.25-5.23-.74-1.66-.49-3-1.19-4.03-2.1l1.68-2.66c.9.77,2.02,1.37,3.35,1.81,1.33.44,2.7.66,4.12.66,2.27,0,3.95-.53,5.03-1.58,1.09-1.05,1.63-2.65,1.63-4.81v-1.51c-.83.98-1.85,1.72-3.06,2.21s-2.52.74-3.93.74c-1.85,0-3.53-.39-5.03-1.17-1.5-.78-2.68-1.87-3.53-3.26-.85-1.4-1.28-3-1.28-4.79s.43-3.39,1.28-4.79c.85-1.4,2.03-2.48,3.53-3.25,1.5-.77,3.18-1.15,5.03-1.15,1.46,0,2.82.26,4.08.79,1.26.53,2.29,1.3,3.09,2.33v-2.94h3.33ZM353.57,97.71c1.01-.53,1.81-1.26,2.38-2.21.57-.94.86-2.01.86-3.21,0-1.84-.62-3.33-1.87-4.47s-2.84-1.7-4.79-1.7-3.59.57-4.83,1.7-1.87,2.62-1.87,4.47c0,1.2.29,2.27.86,3.21.57.95,1.37,1.68,2.38,2.21,1.01.53,2.16.79,3.46.79s2.41-.26,3.42-.79Z" style="fill: rgb(0, 143, 237); stroke-width: 0px;"></path><path d="M383.18,85.21c1.45,1.4,2.18,3.45,2.18,6.15v10.94h-3.51v-10.55c0-1.84-.45-3.23-1.35-4.16-.9-.93-2.2-1.4-3.88-1.4-1.9,0-3.4.54-4.5,1.63s-1.65,2.65-1.65,4.68v9.79h-3.51v-19.01h3.37v2.87c.71-.98,1.67-1.73,2.87-2.26,1.21-.53,2.58-.79,4.12-.79,2.46,0,4.42.7,5.88,2.1Z" style="fill: rgb(0, 143, 237); stroke-width: 0px;"></path><path d="M409.44,93.94h-15.74c.22,1.67.97,3.02,2.25,4.04s2.87,1.52,4.78,1.52c2.32,0,4.18-.77,5.6-2.3l1.94,2.22c-.88,1-1.97,1.77-3.28,2.3-1.31.53-2.76.79-4.37.79-2.05,0-3.87-.41-5.45-1.24-1.59-.83-2.81-1.98-3.68-3.46-.87-1.48-1.3-3.16-1.3-5.02s.42-3.5,1.26-4.99c.84-1.48,2-2.64,3.48-3.46,1.48-.83,3.14-1.24,4.99-1.24s3.51.41,4.96,1.24c1.45.82,2.59,1.98,3.4,3.46.82,1.48,1.23,3.18,1.23,5.09,0,.26-.02.61-.07,1.04ZM395.7,87.52c-1.13,1-1.8,2.32-2,3.95h12.44c-.2-1.6-.86-2.91-1.99-3.93s-2.54-1.52-4.23-1.52-3.09.5-4.23,1.51Z" style="fill: rgb(0, 143, 237); stroke-width: 0px;"></path><path d="M420.45,83.97c1.19-.57,2.65-.86,4.35-.86v3.34c-.2-.02-.46-.04-.81-.04-1.9,0-3.4.56-4.48,1.67-1.09,1.11-1.63,2.7-1.63,4.75v9.47h-3.51v-19.01h3.37v3.19c.61-1.1,1.51-1.94,2.71-2.51Z" style="fill: rgb(0, 143, 237); stroke-width: 0px;"></path><path d="M428.1,101.82c-.49-.47-.73-1.06-.73-1.78s.24-1.27.73-1.74c.49-.47,1.07-.7,1.76-.7s1.26.23,1.72.68.7,1.04.7,1.76-.24,1.31-.71,1.78c-.48.47-1.04.7-1.7.7s-1.27-.23-1.76-.7Z" style="fill: rgb(255, 255, 255); stroke-width: 0px;"></path><path d="M476.52,83.29l-7.25,19.01h-3.37l-5.6-14.42-5.67,14.42h-3.37l-7.21-19.01h3.33l5.64,15.14,5.86-15.14h2.96l5.75,15.21,5.78-15.21h3.15Z" style="fill: rgb(255, 255, 255); stroke-width: 0px;"></path><path d="M496.98,93.94h-15.74c.22,1.67.97,3.02,2.25,4.04s2.87,1.52,4.78,1.52c2.32,0,4.18-.77,5.6-2.3l1.94,2.22c-.88,1-1.97,1.77-3.28,2.3-1.31.53-2.76.79-4.37.79-2.05,0-3.87-.41-5.45-1.24-1.59-.83-2.81-1.98-3.68-3.46-.87-1.48-1.3-3.16-1.3-5.02s.42-3.5,1.26-4.99c.84-1.48,2-2.64,3.48-3.46,1.48-.83,3.14-1.24,4.99-1.24s3.51.41,4.96,1.24c1.45.82,2.59,1.98,3.4,3.46.82,1.48,1.23,3.18,1.23,5.09,0,.26-.02.61-.07,1.04ZM483.24,87.52c-1.13,1-1.8,2.32-2,3.95h12.44c-.2-1.6-.86-2.91-1.99-3.93s-2.54-1.52-4.23-1.52-3.09.5-4.23,1.51Z" style="fill: rgb(255, 255, 255); stroke-width: 0px;"></path><path d="M517.25,84.33c1.49.81,2.65,1.95,3.5,3.41s1.26,3.14,1.26,5.06-.42,3.61-1.26,5.08-2.01,2.61-3.5,3.43c-1.49.81-3.17,1.22-5.05,1.22-1.44,0-2.76-.27-3.95-.82s-2.18-1.35-2.96-2.4v3.01h-3.37v-26.62h3.51v10.47c.78-1,1.76-1.76,2.93-2.28,1.17-.51,2.45-.77,3.84-.77,1.88,0,3.56.41,5.05,1.22ZM515.26,98.66c.99-.56,1.77-1.35,2.34-2.37.57-1.02.86-2.18.86-3.5s-.29-2.48-.86-3.5-1.35-1.8-2.34-2.35c-.99-.55-2.1-.83-3.35-.83s-2.33.28-3.33.83-1.78,1.33-2.34,2.35-.84,2.18-.84,3.5.28,2.48.84,3.5c.56,1.02,1.34,1.81,2.34,2.37s2.11.84,3.33.84,2.36-.28,3.35-.84Z" style="fill: rgb(255, 255, 255); stroke-width: 0px;"></path><path d="M555.02,75.69v26.62h-3.37v-3.01c-.78,1.05-1.77,1.85-2.96,2.4-1.2.55-2.51.82-3.95.82-1.88,0-3.56-.41-5.05-1.22-1.49-.81-2.65-1.96-3.5-3.43s-1.26-3.16-1.26-5.08.42-3.6,1.26-5.06,2.01-2.59,3.5-3.41c1.49-.81,3.17-1.22,5.05-1.22,1.39,0,2.67.26,3.84.77,1.17.51,2.15,1.27,2.93,2.28v-10.47h3.51ZM548.36,98.66c1-.56,1.78-1.35,2.34-2.37.56-1.02.84-2.18.84-3.5s-.28-2.48-.84-3.5c-.56-1.02-1.34-1.8-2.34-2.35s-2.11-.83-3.33-.83-2.36.28-3.35.83c-.99.55-1.77,1.33-2.34,2.35s-.86,2.18-.86,3.5.29,2.48.86,3.5c.57,1.02,1.35,1.81,2.34,2.37.99.56,2.1.84,3.35.84s2.33-.28,3.33-.84Z" style="fill: rgb(0, 143, 237); stroke-width: 0px;"></path><path d="M579.14,93.94h-15.74c.22,1.67.97,3.02,2.25,4.04s2.87,1.52,4.78,1.52c2.32,0,4.18-.77,5.6-2.3l1.94,2.22c-.88,1-1.97,1.77-3.28,2.3-1.31.53-2.76.79-4.37.79-2.05,0-3.87-.41-5.45-1.24-1.59-.83-2.81-1.98-3.68-3.46-.87-1.48-1.3-3.16-1.3-5.02s.42-3.5,1.26-4.99c.84-1.48,2-2.64,3.48-3.46,1.48-.83,3.14-1.24,4.99-1.24s3.51.41,4.96,1.24c1.45.82,2.59,1.98,3.4,3.46.82,1.48,1.23,3.18,1.23,5.09,0,.26-.02.61-.07,1.04ZM565.39,87.52c-1.13,1-1.8,2.32-2,3.95h12.44c-.2-1.6-.86-2.91-1.99-3.93s-2.54-1.52-4.23-1.52-3.09.5-4.23,1.51Z" style="fill: rgb(0, 143, 237); stroke-width: 0px;"></path><path d="M600.88,83.29l-8.49,19.01h-3.59l-8.49-19.01h3.66l6.66,15.25,6.81-15.25h3.44Z" style="fill: rgb(0, 143, 237); stroke-width: 0px;"></path><path d="M621.08,93.94h-15.74c.22,1.67.97,3.02,2.25,4.04s2.87,1.52,4.78,1.52c2.32,0,4.18-.77,5.6-2.3l1.94,2.22c-.88,1-1.97,1.77-3.28,2.3-1.31.53-2.76.79-4.37.79-2.05,0-3.87-.41-5.45-1.24-1.59-.83-2.81-1.98-3.68-3.46-.87-1.48-1.3-3.16-1.3-5.02s.42-3.5,1.26-4.99c.84-1.48,2-2.64,3.48-3.46,1.48-.83,3.14-1.24,4.99-1.24s3.51.41,4.96,1.24c1.45.82,2.59,1.98,3.4,3.46.82,1.48,1.23,3.18,1.23,5.09,0,.26-.02.61-.07,1.04ZM607.33,87.52c-1.13,1-1.8,2.32-2,3.95h12.44c-.2-1.6-.86-2.91-1.99-3.93s-2.54-1.52-4.23-1.52-3.09.5-4.23,1.51Z" style="fill: rgb(0, 143, 237); stroke-width: 0px;"></path><path d="M626.02,75.69h3.51v26.62h-3.51v-26.62Z" style="fill: rgb(0, 143, 237); stroke-width: 0px;"></path><path d="M639.34,101.26c-1.54-.84-2.74-1.99-3.61-3.46s-1.3-3.14-1.3-5,.43-3.53,1.3-5,2.07-2.62,3.61-3.44c1.54-.83,3.27-1.24,5.2-1.24s3.65.41,5.18,1.24c1.52.82,2.72,1.97,3.59,3.44.87,1.47,1.3,3.14,1.3,5s-.43,3.53-1.3,5c-.87,1.47-2.06,2.62-3.59,3.46s-3.25,1.25-5.18,1.25-3.66-.42-5.2-1.25ZM647.88,98.66c.99-.56,1.76-1.35,2.32-2.37.56-1.02.84-2.18.84-3.5s-.28-2.48-.84-3.5c-.56-1.02-1.34-1.8-2.32-2.35-.99-.55-2.1-.83-3.35-.83s-2.36.28-3.35.83c-.99.55-1.77,1.33-2.34,2.35s-.86,2.18-.86,3.5.29,2.48.86,3.5c.57,1.02,1.35,1.81,2.34,2.37.99.56,2.1.84,3.35.84s2.36-.28,3.35-.84Z" style="fill: rgb(0, 143, 237); stroke-width: 0px;"></path><path d="M674.8,84.33c1.49.81,2.65,1.95,3.5,3.41s1.26,3.14,1.26,5.06-.42,3.61-1.26,5.08-2.01,2.61-3.5,3.43c-1.49.81-3.17,1.22-5.05,1.22-1.39,0-2.67-.26-3.82-.79-1.16-.53-2.14-1.29-2.95-2.3v9.83h-3.51v-25.97h3.37v3.01c.78-1.05,1.77-1.85,2.96-2.39s2.51-.81,3.95-.81c1.88,0,3.56.41,5.05,1.22ZM672.81,98.66c.99-.56,1.77-1.35,2.34-2.37.57-1.02.86-2.18.86-3.5s-.29-2.48-.86-3.5-1.35-1.8-2.34-2.35c-.99-.55-2.1-.83-3.35-.83s-2.32.28-3.31.84c-.99.56-1.77,1.35-2.34,2.35-.57,1-.86,2.17-.86,3.48s.28,2.48.84,3.5c.56,1.02,1.34,1.81,2.34,2.37s2.11.84,3.33.84,2.36-.28,3.35-.84Z" style="fill: rgb(0, 143, 237); stroke-width: 0px;"></path><path d="M701.88,93.94h-15.74c.22,1.67.97,3.02,2.25,4.04s2.87,1.52,4.78,1.52c2.32,0,4.18-.77,5.6-2.3l1.94,2.22c-.88,1-1.97,1.77-3.28,2.3-1.31.53-2.76.79-4.37.79-2.05,0-3.87-.41-5.45-1.24-1.59-.83-2.81-1.98-3.68-3.46-.87-1.48-1.3-3.16-1.3-5.02s.42-3.5,1.26-4.99c.84-1.48,2-2.64,3.48-3.46,1.48-.83,3.14-1.24,4.99-1.24s3.51.41,4.96,1.24c1.45.82,2.59,1.98,3.4,3.46.82,1.48,1.23,3.18,1.23,5.09,0,.26-.02.61-.07,1.04ZM688.14,87.52c-1.13,1-1.8,2.32-2,3.95h12.44c-.2-1.6-.86-2.91-1.99-3.93s-2.54-1.52-4.23-1.52-3.09.5-4.23,1.51Z" style="fill: rgb(0, 143, 237); stroke-width: 0px;"></path><path d="M712.9,83.97c1.19-.57,2.65-.86,4.35-.86v3.34c-.2-.02-.46-.04-.81-.04-1.9,0-3.4.56-4.48,1.67-1.09,1.11-1.63,2.7-1.63,4.75v9.47h-3.51v-19.01h3.37v3.19c.61-1.1,1.51-1.94,2.71-2.51Z" style="fill: rgb(0, 143, 237); stroke-width: 0px;"></path><path d="M720.55,101.82c-.49-.47-.73-1.06-.73-1.78s.24-1.27.73-1.74c.49-.47,1.07-.7,1.76-.7s1.26.23,1.72.68.7,1.04.7,1.76-.24,1.31-.71,1.78c-.48.47-1.04.7-1.7.7s-1.27-.23-1.76-.7Z" style="fill: rgb(255, 255, 255); stroke-width: 0px;"></path></g><path d="M220.44,34.37c1.63,2.11,2.45,4.66,2.45,7.63,0,4.42-1.82,7.84-5.47,10.26-3.65,2.42-8.93,3.64-15.84,3.64h-28.37V5.5h26.93c6.72,0,11.8,1.2,15.23,3.6,3.43,2.4,5.15,5.59,5.15,9.58,0,2.35-.59,4.46-1.76,6.34-1.18,1.87-2.92,3.38-5.22,4.54,2.98,1.1,5.28,2.71,6.91,4.82ZM189.91,17.38v7.49h7.92c3.7,0,5.54-1.25,5.54-3.74s-1.85-3.74-5.54-3.74h-7.92ZM205.75,40.06c0-2.64-1.87-3.96-5.62-3.96h-10.22v7.92h10.22c3.74,0,5.62-1.32,5.62-3.96Z" style="fill: rgb(255, 255, 255); stroke-width: 0px;"></path><path d="M229.86,5.5h16.99v37.22h22.75v13.18h-39.74V5.5Z" style="fill: rgb(255, 255, 255); stroke-width: 0px;"></path><path d="M316.35,47.12h-19.15l-3.38,8.78h-17.28l22.03-50.4h16.7l22.03,50.4h-17.57l-3.38-8.78ZM311.67,34.88l-4.9-12.67-4.9,12.67h9.79Z" style="fill: rgb(255, 255, 255); stroke-width: 0px;"></path><path d="M365.56,39.2l-3.82,4.25v12.46h-16.7V5.5h16.7v18.29l16.56-18.29h18.5l-20.16,22.18,21.17,28.22h-19.66l-12.6-16.7Z" style="fill: rgb(255, 255, 255); stroke-width: 0px;"></path><path d="M447.02,43.08v12.82h-41.9V5.5h40.97v12.82h-24.26v5.9h21.31v12.24h-21.31v6.62h25.2Z" style="fill: rgb(255, 255, 255); stroke-width: 0px;"></path><path d="M477.17,5.5h16.99v37.22h22.75v13.18h-39.74V5.5Z" style="fill: rgb(0, 143, 237); stroke-width: 0px;"></path><path d="M544.5,37.61v18.29h-16.99v-18.5l-19.01-31.9h17.93l10.3,17.42,10.37-17.42h16.42l-19.01,32.11Z" style="fill: rgb(0, 143, 237); stroke-width: 0px;"></path><path d="M575.32,53.67c-4.32-2.26-7.71-5.39-10.15-9.4-2.45-4.01-3.67-8.53-3.67-13.57s1.22-9.56,3.67-13.57c2.45-4.01,5.83-7.14,10.15-9.4,4.32-2.26,9.19-3.38,14.62-3.38s10.3,1.13,14.62,3.38c4.32,2.26,7.71,5.39,10.15,9.4,2.45,4.01,3.67,8.53,3.67,13.57s-1.22,9.56-3.67,13.57c-2.45,4.01-5.83,7.14-10.15,9.4-4.32,2.26-9.19,3.38-14.62,3.38s-10.29-1.13-14.62-3.38ZM595.66,41.75c1.7-1.03,3.06-2.5,4.07-4.39,1.01-1.9,1.51-4.12,1.51-6.66s-.5-4.76-1.51-6.66c-1.01-1.9-2.37-3.36-4.07-4.39-1.71-1.03-3.61-1.55-5.72-1.55s-4.02.52-5.72,1.55c-1.7,1.03-3.06,2.5-4.07,4.39-1.01,1.9-1.51,4.12-1.51,6.66s.5,4.76,1.51,6.66c1.01,1.9,2.36,3.36,4.07,4.39,1.7,1.03,3.61,1.55,5.72,1.55s4.02-.52,5.72-1.55Z" style="fill: rgb(0, 143, 237); stroke-width: 0px;"></path><path d="M676.25,5.5v50.4h-13.97l-19.15-22.9v22.9h-16.56V5.5h13.97l19.15,22.9V5.5h16.56Z" style="fill: rgb(0, 143, 237); stroke-width: 0px;"></path><path d="M693.04,55.65c-3.96-.94-7.21-2.2-9.76-3.78l5.47-12.38c2.4,1.39,5.09,2.51,8.06,3.35,2.97.84,5.83,1.26,8.57,1.26,2.35,0,4.03-.23,5.04-.68,1.01-.46,1.51-1.14,1.51-2.05,0-1.06-.66-1.85-1.98-2.38-1.32-.53-3.49-1.1-6.52-1.73-3.89-.82-7.13-1.69-9.72-2.63s-4.85-2.47-6.77-4.61c-1.92-2.14-2.88-5.03-2.88-8.68,0-3.17.89-6.05,2.66-8.64,1.78-2.59,4.43-4.63,7.96-6.12,3.53-1.49,7.81-2.23,12.85-2.23,3.46,0,6.85.37,10.19,1.12,3.34.74,6.28,1.84,8.82,3.28l-5.11,12.31c-4.94-2.5-9.62-3.74-14.04-3.74s-6.55,1.06-6.55,3.17c0,1.01.65,1.76,1.95,2.27,1.29.5,3.43,1.04,6.41,1.62,3.84.72,7.08,1.55,9.72,2.48,2.64.94,4.93,2.46,6.88,4.57,1.94,2.11,2.92,4.99,2.92,8.64,0,3.17-.89,6.04-2.66,8.6-1.78,2.57-4.43,4.61-7.96,6.12-3.53,1.51-7.81,2.27-12.85,2.27-4.18,0-8.24-.47-12.2-1.4Z" style="fill: rgb(0, 143, 237); stroke-width: 0px;"></path></g><g><path d="M49.27,38.3l-34.47,12.63,34.47,12.53v12.94L0,57.66v-13.46l49.27-18.74v12.84Z" style="fill: rgb(255, 255, 255); stroke-width: 0px;"></path><path d="M86.33,0h14.39l-34.16,97.51h-14.39L86.33,0Z" style="fill: rgb(0, 143, 237); stroke-width: 0px;"></path><path d="M151.86,44.2v13.46l-49.27,18.74v-12.94l34.47-12.53-34.47-12.63v-12.84l49.27,18.74Z" style="fill: rgb(255, 255, 255); stroke-width: 0px;"></path></g></svg>